<svg xmlns="http://www.w3.org/2000/svg" viewBox="0 0 40 40"><rect width="40" height="40" rx="12" fill="#3366ff"/><svg xmlns="http://www.w3.org/2000/svg" width="16" height="16" viewBox="0 0 24 24" fill="none" stroke="#ffffff" stroke-width="2" stroke-linecap="round" stroke-linejoin="round" class="lucide lucide-file-plus-corner" aria-hidden="true" x="12" y="12"><path d="M11.35 22H6a2 2 0 0 1-2-2V4a2 2 0 0 1 2-2h8a2.4 2.4 0 0 1 1.706.706l3.588 3.588A2.4 2.4 0 0 1 20 8v5.35"></path><path d="M14 2v5a1 1 0 0 0 1 1h5"></path><path d="M14 19h6"></path><path d="M17 16v6"></path></svg></svg>
